<?xml version="1.0" encoding="utf-8"?>
<!-- Generator: Adobe Illustrator 24.0.0, SVG Export Plug-In . SVG Version: 6.00 Build 0)  -->
<svg version="1.1" id="Layer_1" xmlns="http://www.w3.org/2000/svg" xmlns:xlink="http://www.w3.org/1999/xlink" x="0px" y="0px"
	 viewBox="0 0 46 62" style="enable-background:new 0 0 46 62;" xml:space="preserve">
<style type="text/css">
	.st0{fill-rule:evenodd;clip-rule:evenodd;fill:#999999;}
</style>
<g>
	<path class="st0" d="M44.941,61.982V51.075H20.902l7.887-9.104c4.195-4.195,7.237-7.544,9.125-10.048s3.28-4.895,4.174-7.174
		s1.343-4.622,1.343-7.027c0-5.706-1.783-10.083-5.35-13.131c-3.567-3.048-8.649-4.573-15.249-4.573
		c-4.111,0-7.831,0.895-11.16,2.685S5.743,6.975,3.87,10.149s-2.811,6.635-2.811,10.384l0,0h14.18c0-2.741,0.672-5.027,2.013-6.859
		s3.09-2.747,5.244-2.747c2.181,0,3.846,0.685,4.992,2.055s1.72,3.37,1.72,6c0,3.244-2.419,7.622-7.258,13.131l0,0L2.317,52.753
		v9.23H44.941z"/>
</g>
</svg>
