<?xml version="1.0" encoding="utf-8"?>
<!-- Generator: Adobe Illustrator 24.0.0, SVG Export Plug-In . SVG Version: 6.00 Build 0)  -->
<svg version="1.1" id="Layer_1" xmlns="http://www.w3.org/2000/svg" xmlns:xlink="http://www.w3.org/1999/xlink" x="0px" y="0px"
	 viewBox="0 0 46 62" style="enable-background:new 0 0 46 62;" xml:space="preserve">
<style type="text/css">
	.st0{fill-rule:evenodd;clip-rule:evenodd;fill:#999999;}
</style>
<g>
	<path class="st0" d="M22.369,62c6.737,0,12.177-1.615,16.318-4.845c4.142-3.23,6.212-7.537,6.212-12.922
		c0-3.479-0.911-6.399-2.734-8.76c-1.823-2.361-4.335-4.121-7.537-5.281c3.037-1.436,5.349-3.306,6.937-5.612
		s2.382-4.756,2.382-7.351c0-5.356-1.919-9.567-5.757-12.632S29.079,0,22.369,0c-3.755,0-7.199,0.697-10.334,2.092
		S6.452,5.426,4.684,7.91s-2.651,5.315-2.651,8.491l0,0H15.99c0-1.601,0.683-2.941,2.05-4.017s2.975-1.615,4.825-1.615
		c2.264,0,4.017,0.628,5.26,1.884s1.864,2.878,1.864,4.867c0,5.108-2.609,7.662-7.828,7.662l0,0h-6.585v10.395h6.792
		c2.679,0,4.777,0.635,6.295,1.906c1.518,1.27,2.278,3.424,2.278,6.461c0,2.126-0.732,3.873-2.195,5.24
		c-1.463,1.367-3.424,2.05-5.882,2.05c-2.181,0-4.017-0.677-5.509-2.029c-1.491-1.352-2.236-2.954-2.236-4.804l0,0H1.081
		c0,3.396,0.869,6.426,2.609,9.091c1.74,2.665,4.301,4.749,7.683,6.254C14.756,61.249,18.421,62,22.369,62z"/>
</g>
</svg>
