<?xml version="1.0" encoding="utf-8"?>
<!-- Generator: Adobe Illustrator 24.0.0, SVG Export Plug-In . SVG Version: 6.00 Build 0)  -->
<svg version="1.1" id="Layer_1" xmlns="http://www.w3.org/2000/svg" xmlns:xlink="http://www.w3.org/1999/xlink" x="0px" y="0px"
	 viewBox="0 0 46 62" style="enable-background:new 0 0 46 62;" xml:space="preserve">
<style type="text/css">
	.st0{fill-rule:evenodd;clip-rule:evenodd;fill:#999999;}
</style>
<g>
	<path class="st0" d="M22.997,61.922c4.307,0,8.041-0.853,11.202-2.559c3.16-1.706,5.615-4.147,7.363-7.321
		s2.622-6.719,2.622-10.635c0-6.489-1.63-11.53-4.888-15.124c-3.258-3.594-7.922-5.39-13.991-5.39c-1.566,0-3.167,0.224-4.804,0.672
		c-1.636,0.447-2.957,0.965-3.965,1.552l0,0l1.384-12.124h24.207V0H6.426L2.692,31.213l11.244,2.643
		c1.622-2.126,4.083-3.189,7.383-3.189c5.817,0,8.727,3.258,8.727,9.775c0,7.048-2.377,10.572-7.132,10.572
		c-2.097,0-3.79-0.657-5.076-1.972c-1.287-1.314-2-3.09-2.139-5.328l0,0H1.518c-0.028,3.468,0.909,6.58,2.811,9.335
		c1.902,2.755,4.531,4.923,7.887,6.502C15.571,61.131,19.165,61.922,22.997,61.922z"/>
</g>
</svg>
